<svg xmlns="http://www.w3.org/2000/svg" width="440.476" height="67.613" viewBox="0 0 440.476 67.613">
  <g id="Group_8" data-name="Group 8" transform="translate(-881.372 501.506)">
    <path id="Path_147" data-name="Path 147" d="M20.658,0,18.084-5.973H5.94L3.366,0H.594l10.23-23.265h2.343L23.4,0ZM6.9-8.217h10.23L12.012-20.13Zm18.975.528V-9.9h9.24v2.211ZM44.484,0V-20.955H36.4v-2.31H55.341v2.31H47.223V0ZM58.608,0V-23.265H73.326v2.244H61.281v8.085H72.666v2.244H61.281v8.448H73.326V0ZM95.139,0,92.565-5.973H80.421L77.847,0H75.075l10.23-23.265h2.343L97.878,0ZM81.378-8.217h10.23L86.493-20.13ZM121.11-23.265h2.211V0h-2.475l.033-18.018L113.322-3.7h-1.914l-7.59-14.19L103.851,0h-2.508V-23.265h2.244L112.4-6.4ZM155.034,0l-2.343-5.445H141.372L139.029,0h-4.29l10.527-23.265h3.465L159.258,0ZM142.758-8.745h8.514l-4.257-9.9ZM171.567.3a11.82,11.82,0,0,1-5.989-1.469,9.8,9.8,0,0,1-3.927-4.175,13.783,13.783,0,0,1-1.37-6.3,13.68,13.68,0,0,1,1.37-6.287,9.821,9.821,0,0,1,3.927-4.158,11.82,11.82,0,0,1,5.989-1.469,13.317,13.317,0,0,1,4.422.726,9.8,9.8,0,0,1,3.5,2.046l-1.419,3.1a11.656,11.656,0,0,0-3.135-1.831,9.38,9.38,0,0,0-3.3-.578,6.414,6.414,0,0,0-5.2,2.178,9.494,9.494,0,0,0-1.831,6.27q0,4.125,1.831,6.3a6.414,6.414,0,0,0,5.2,2.178,9.38,9.38,0,0,0,3.3-.578,11.656,11.656,0,0,0,3.135-1.832l1.419,3.1a9.8,9.8,0,0,1-3.5,2.046A13.317,13.317,0,0,1,171.567.3ZM200.739,0,198.4-5.445H187.077L184.734,0h-4.29l10.527-23.265h3.465L204.963,0ZM188.463-8.745h8.514l-4.257-9.9Zm18.975-14.52h8.58q5.709,0,8.861,3.052t3.152,8.564q0,5.511-3.152,8.58T216.018,0h-8.58Zm8.316,19.8q8.019,0,8.019-8.184,0-8.151-8.019-8.151h-4.059V-3.465ZM232.32,0V-23.265H247.9V-19.9H236.478v6.4h10.758v3.333H236.478v6.8H247.9V0Zm38.808-23.265h3.333V0H270.7V-15.378L264.561-3.762h-2.838l-6.171-11.451L255.585,0h-3.762V-23.265h3.366l7.986,15.213Zm27.72,0-9.438,12.54V0h-4.257V-10.725l-9.4-12.54h4.785l6.732,9.141,6.765-9.141Z" transform="translate(1023 -457)" fill="#fff"/>
    <g id="Group_5" data-name="Group 5" transform="translate(881.372 -501.506)">
      <g id="Group_1" data-name="Group 1">
        <path id="Path_1" data-name="Path 1" d="M1131.511,619.989c4.424,4.073,6.808,8.556,6.535,13.161-.915,15.4-31.014,26.328-67.227,24.412-23.37-1.238-43.562-7.527-54.708-15.968,10.366,9.546,32,16.847,57.38,18.191,36.213,1.919,66.313-9.01,67.227-24.41C1141.041,629.914,1137.636,624.628,1131.511,619.989Z" transform="translate(-1016.11 -592.39)" fill="#fff"/>
        <path id="Path_2" data-name="Path 2" d="M1102.721,641.479V629.017l-28.041,5.969-28.513-11.939-2.514,11.939S1061.01,653,1071.929,653C1085.125,653,1102.721,641.479,1102.721,641.479Zm16.447-20.085.1-.024-1.434-.652c-1.252-.612-2.56-1.2-3.908-1.775l-36.132-16.425-44.825,10.054,41.911,19.061,41.316-9.553c11.562,5.763,18.481,13.151,17.942,20.749-1.059,14.961-30.577,25.057-65.927,22.553-21.6-1.53-40.364-7.413-51.466-15.168,10.971,8.745,30.751,15.431,53.7,17.057,35.828,2.537,65.78-8.209,66.9-24C1137.915,635.236,1130.9,627.447,1119.168,621.394Z" transform="translate(-1014.005 -602.519)" fill="#fff"/>
      </g>
    </g>
  </g>
</svg>
