<svg xmlns="http://www.w3.org/2000/svg" width="40" height="40" viewBox="0 0 40 40">
  <g id="cancel" transform="translate(0 -0.001)">
    <g id="Group_125" data-name="Group 125" transform="translate(0 0.001)">
      <path id="Path_77" data-name="Path 77" d="M39.828,32.151,27.679,20l12.15-12.15a.586.586,0,0,0,0-.829L32.978.173a.586.586,0,0,0-.829,0L20,12.322,7.85.173a.586.586,0,0,0-.829,0L.172,7.023a.586.586,0,0,0,0,.829L12.321,20,7.282,25.04a.586.586,0,0,0,.829.829l5.453-5.453a.586.586,0,0,0,0-.829L1.415,7.437,7.436,1.416l12.15,12.15a.586.586,0,0,0,.829,0l12.15-12.15,6.021,6.021-12.15,12.15a.586.586,0,0,0,0,.829l12.15,12.15-6.021,6.021-12.15-12.15a.586.586,0,0,0-.829,0L7.436,38.586,1.415,32.565l5.039-5.039a.586.586,0,1,0-.829-.829L.172,32.151a.586.586,0,0,0,0,.829l6.85,6.85a.586.586,0,0,0,.829,0L20,27.68l12.15,12.15a.586.586,0,0,0,.829,0l6.85-6.85A.586.586,0,0,0,39.828,32.151Z" transform="translate(0 -0.001)" fill="#d8494f"/>
    </g>
  </g>
</svg>
