<svg xmlns="http://www.w3.org/2000/svg" width="24" height="24" viewBox="0 0 24 24">
  <g id="checked" transform="translate(0 -10.357)">
    <g id="Group_122" data-name="Group 122" transform="translate(0 10.358)">
      <g id="Group_121" data-name="Group 121">
        <path id="Path_75" data-name="Path 75" d="M22.456,19.94a3.532,3.532,0,0,1-.806-.819,3.924,3.924,0,0,1,.186-1.192,3.493,3.493,0,0,0-.121-2.9,3.212,3.212,0,0,0-2.609-1.012,3.554,3.554,0,0,1-1.141-.187,3.978,3.978,0,0,1-.537-1.093c-.35-.9-.749-1.93-1.722-2.256a3.064,3.064,0,0,0-2.631.768A3.479,3.479,0,0,1,12,11.821a3.448,3.448,0,0,1-1.057-.576,3.075,3.075,0,0,0-2.672-.787C7.3,10.8,6.9,11.822,6.555,12.719a3.941,3.941,0,0,1-.536,1.088A3.53,3.53,0,0,1,4.86,14a3.106,3.106,0,0,0-2.6,1.021,3.512,3.512,0,0,0-.091,2.873,4.133,4.133,0,0,1,.19,1.188,3.756,3.756,0,0,1-.8.811A3.437,3.437,0,0,0,0,22.352,3.4,3.4,0,0,0,1.534,24.79a3.529,3.529,0,0,1,.8.836A3.829,3.829,0,0,1,2.15,26.8a3.449,3.449,0,0,0,.133,2.922,3.262,3.262,0,0,0,2.612,1,3.53,3.53,0,0,1,1.141.187A4,4,0,0,1,6.571,32c.351.9.749,1.93,1.723,2.257a1.764,1.764,0,0,0,.577.1,3.984,3.984,0,0,0,2.055-.862A3.462,3.462,0,0,1,12,32.929a3.384,3.384,0,0,1,1.054.56,3.063,3.063,0,0,0,2.657.76c.97-.344,1.365-1.362,1.715-2.261a3.956,3.956,0,0,1,.536-1.088,3.511,3.511,0,0,1,1.154-.19A3.144,3.144,0,0,0,21.707,29.7a3.485,3.485,0,0,0,.117-2.9,4.1,4.1,0,0,1-.186-1.176,3.771,3.771,0,0,1,.8-.811A3.437,3.437,0,0,0,24,22.353,3.335,3.335,0,0,0,22.456,19.94Zm-1.282,3.282a4.11,4.11,0,0,0-1.416,1.752,4.353,4.353,0,0,0,.145,2.338,7.064,7.064,0,0,1,.226,1.147,3.481,3.481,0,0,1-1.144.187,4,4,0,0,0-2.194.585,4.33,4.33,0,0,0-1.2,1.98,6.2,6.2,0,0,1-.477,1.072,3.543,3.543,0,0,1-.988-.538A4.033,4.033,0,0,0,12,30.861a4.084,4.084,0,0,0-2.135.887,7.937,7.937,0,0,1-.926.564A3.98,3.98,0,0,1,8.41,31.23,4.3,4.3,0,0,0,7.2,29.236a3.936,3.936,0,0,0-2.168-.572,4.736,4.736,0,0,1-1.147-.157,3.8,3.8,0,0,1,.188-1.18,4.422,4.422,0,0,0,.157-2.335A4.189,4.189,0,0,0,2.8,23.2a4.11,4.11,0,0,1-.821-.834c.045-.194.565-.642.845-.881a4.118,4.118,0,0,0,1.416-1.753,4.371,4.371,0,0,0-.15-2.356,8.717,8.717,0,0,1-.238-1.135,3.612,3.612,0,0,1,1.138-.183,3.954,3.954,0,0,0,2.2-.585,4.327,4.327,0,0,0,1.2-1.979,6.785,6.785,0,0,1,.471-1.071,3.624,3.624,0,0,1,1,.554A4.022,4.022,0,0,0,12,13.888,4.085,4.085,0,0,0,14.135,13a7.79,7.79,0,0,1,.926-.564,4.009,4.009,0,0,1,.529,1.082A4.3,4.3,0,0,0,16.8,15.513a3.932,3.932,0,0,0,2.17.573,5.223,5.223,0,0,1,1.127.146,3.882,3.882,0,0,1-.186,1.185,4.462,4.462,0,0,0-.151,2.343,4.1,4.1,0,0,0,1.443,1.787,3.881,3.881,0,0,1,.806.811A3.974,3.974,0,0,1,21.173,23.222Z" transform="translate(0 -10.358)" fill="#fff"/>
      </g>
    </g>
    <g id="Group_124" data-name="Group 124" transform="translate(7.041 18.217)">
      <g id="Group_123" data-name="Group 123">
        <path id="Path_76" data-name="Path 76" d="M159.61,171.488a.962.962,0,0,0-1.4.129l-4.422,5.51-1.881-1.96a.963.963,0,0,0-1.4,0,1.063,1.063,0,0,0,0,1.462l2.648,2.76a.965.965,0,0,0,.7.3.3.3,0,0,0,.043,0,.975.975,0,0,0,.717-.369l5.117-6.377A1.063,1.063,0,0,0,159.61,171.488Z" transform="translate(-150.216 -171.247)" fill="#fff"/>
      </g>
    </g>
  </g>
</svg>
