<svg xmlns="http://www.w3.org/2000/svg" width="53.699" height="30.37" viewBox="0 0 53.699 30.37">
  <g id="Group_130" data-name="Group 130" transform="translate(-2.074)">
    <g id="Group_1" data-name="Group 1" transform="translate(2.074)">
      <path id="Path_1" data-name="Path 1" d="M1065.833,619.989c1.906,1.795,2.934,3.769,2.816,5.8-.394,6.784-13.363,11.6-28.966,10.755-10.069-.546-18.769-3.316-23.572-7.035,4.466,4.206,13.787,7.422,24.723,8.014,15.6.845,28.572-3.97,28.967-10.754C1069.939,624.362,1068.472,622.032,1065.833,619.989Z" transform="translate(-1016.11 -607.248)" fill="#d8494f"/>
      <path id="Path_2" data-name="Path 2" d="M1054.622,619.683v-5.49l-12.354,2.63-12.562-5.26-1.108,5.26s7.648,7.936,12.458,7.936C1046.871,624.759,1054.622,619.683,1054.622,619.683Zm7.246-8.849.044-.01-.632-.287c-.552-.269-1.128-.53-1.722-.782l-15.918-7.236-19.748,4.429,18.464,8.4,18.2-4.209c5.094,2.539,8.142,5.794,7.9,9.141-.467,6.591-13.471,11.039-29.045,9.936-9.516-.674-17.783-3.266-22.674-6.683,4.833,3.853,13.547,6.8,23.659,7.515,15.784,1.118,28.98-3.617,29.473-10.574C1070.128,616.933,1067.038,613.5,1061.868,610.835Z" transform="translate(-1016.745 -602.519)" fill="#1269a3"/>
    </g>
  </g>
</svg>
