<svg id="megaphone_2_" data-name="megaphone (2)" xmlns="http://www.w3.org/2000/svg" width="81.812" height="63.956" viewBox="0 0 81.812 63.956">
  <g id="Group_100" data-name="Group 100" transform="translate(19.09 0)">
    <g id="Group_99" data-name="Group 99" transform="translate(0 0)">
      <path id="Path_54" data-name="Path 54" d="M157.646,55.467a5.454,5.454,0,0,0-5.454,5.443v.984L120.323,74.614a1.364,1.364,0,0,0-.856,1.264V94.929a1.361,1.361,0,0,0,.856,1.263l31.869,12.721v.985a5.454,5.454,0,0,0,10.908,0V60.91A5.454,5.454,0,0,0,157.646,55.467Zm2.727,54.431a2.727,2.727,0,0,1-5.454,0v-1.905a1.36,1.36,0,0,0-.858-1.264L122.194,94.008V76.8l31.867-12.721a1.363,1.363,0,0,0,.858-1.264V60.91a2.727,2.727,0,0,1,5.454,0Z" transform="translate(-119.467 -55.467)" fill="#1269a3"/>
    </g>
  </g>
  <g id="Group_102" data-name="Group 102" transform="translate(0 19.051)">
    <g id="Group_101" data-name="Group 101" transform="translate(0 0)">
      <path id="Path_55" data-name="Path 55" d="M20.453,174.933H10.908a10.886,10.886,0,1,0,0,21.772h9.545a1.362,1.362,0,0,0,1.363-1.361V176.294A1.363,1.363,0,0,0,20.453,174.933ZM19.09,193.984H10.908a8.165,8.165,0,1,1,0-16.329H19.09Z" transform="translate(0 -174.933)" fill="#1269a3"/>
    </g>
  </g>
  <g id="Group_104" data-name="Group 104" transform="translate(59.996 21.772)">
    <g id="Group_103" data-name="Group 103" transform="translate(0 0)">
      <path id="Path_56" data-name="Path 56" d="M385.443,194.791l-8.181-2.722a1.364,1.364,0,0,0-1.794,1.292v13.608a1.36,1.36,0,0,0,1.363,1.361,1.341,1.341,0,0,0,.431-.071l8.181-2.722a1.357,1.357,0,0,0,.933-1.29v-8.165A1.361,1.361,0,0,0,385.443,194.791Zm-1.794,8.475-5.454,1.814v-9.832l5.454,1.814Z" transform="translate(-375.467 -192.001)" fill="#1269a3"/>
    </g>
  </g>
  <g id="Group_106" data-name="Group 106" transform="translate(8.18 38.102)">
    <g id="Group_105" data-name="Group 105">
      <path id="Path_57" data-name="Path 57" d="M70.158,312.761l-1.369-1.368-4-15.962a1.363,1.363,0,0,0-1.323-1.031H52.559a1.361,1.361,0,0,0-1.328,1.672l5.454,23.133a1.365,1.365,0,0,0,1.327,1.049,1.3,1.3,0,0,0,.259-.026l10.24-1.973.041-.008a3.289,3.289,0,0,0,1.584-.863,3.261,3.261,0,0,0,.022-4.624Zm-1.938,2.686a.547.547,0,0,1-.252.141l-8.927,1.721-4.76-20.189H62.4l3.834,15.3a1.361,1.361,0,0,0,.359.633l1.631,1.628a.537.537,0,0,1,.157.385A.546.546,0,0,1,68.221,315.447Z" transform="translate(-51.195 -294.4)" fill="#1269a3"/>
    </g>
  </g>
  <g id="Group_108" data-name="Group 108" transform="translate(73.631 28.576)">
    <g id="Group_107" data-name="Group 107" transform="translate(0 0)">
      <rect id="Rectangle_30" data-name="Rectangle 30" width="8.181" height="2.722" fill="#1269a3"/>
    </g>
  </g>
  <g id="Group_110" data-name="Group 110" transform="translate(72.927 12.444)">
    <g id="Group_109" data-name="Group 109" transform="translate(0 0)">
      <path id="Path_141" data-name="Path 141" d="M0,0,7.946.007l0,2.723L0,2.723Z" transform="translate(0 4.083) rotate(-30.972)" fill="#1269a3"/>
    </g>
  </g>
  <g id="Group_112" data-name="Group 112" transform="translate(72.939 41.016)">
    <g id="Group_111" data-name="Group 111" transform="translate(0 0)">
      <path id="Path_142" data-name="Path 142" d="M0,0,2.723,0,2.73,7.949l-2.723,0Z" transform="translate(0 2.334) rotate(-59.036)" fill="#1269a3"/>
    </g>
  </g>
  <g id="Group_114" data-name="Group 114" transform="translate(51.814 6.804)">
    <g id="Group_113" data-name="Group 113">
      <rect id="Rectangle_33" data-name="Rectangle 33" width="2.727" height="46.266" fill="#1269a3"/>
    </g>
  </g>
  <g id="Group_116" data-name="Group 116" transform="translate(13.635 24.494)">
    <g id="Group_115" data-name="Group 115">
      <rect id="Rectangle_34" data-name="Rectangle 34" width="2.727" height="5.443" fill="#1269a3"/>
    </g>
  </g>
  <g id="Group_118" data-name="Group 118" transform="translate(8.181 24.494)">
    <g id="Group_117" data-name="Group 117">
      <rect id="Rectangle_35" data-name="Rectangle 35" width="2.727" height="5.443" fill="#1269a3"/>
    </g>
  </g>
</svg>
