<svg xmlns="http://www.w3.org/2000/svg" width="26.103" height="29.711" viewBox="0 0 26.103 29.711">
  <g id="tik-tok" transform="translate(-31.423 -0.39)">
    <path id="Path_78" data-name="Path 78" d="M57.512,7.829a7.486,7.486,0,0,1-4.523-1.512,7.5,7.5,0,0,1-2.846-4.523A7.543,7.543,0,0,1,50,.39H45.147V13.646l-.006,7.261a4.4,4.4,0,1,1-3.016-4.167V11.814a9.546,9.546,0,0,0-1.4-.1,9.3,9.3,0,0,0-6.99,3.126,9.116,9.116,0,0,0,.411,12.57,9.464,9.464,0,0,0,.876.765,9.3,9.3,0,0,0,5.7,1.928,9.546,9.546,0,0,0,1.4-.1,9.271,9.271,0,0,0,5.18-2.59,9.082,9.082,0,0,0,2.725-6.463L50,10.1a12.292,12.292,0,0,0,7.522,2.556V7.828s-.013,0-.014,0Z" fill="#d8d8d8"/>
  </g>
</svg>
