<svg xmlns="http://www.w3.org/2000/svg" width="34.133" height="24" viewBox="0 0 34.133 24">
  <path id="Path_149" data-name="Path 149" d="M34.353-20.245a4.289,4.289,0,0,0-3.018-3.037C28.674-24,18-24,18-24s-10.674,0-13.336.718a4.289,4.289,0,0,0-3.018,3.037,44.991,44.991,0,0,0-.713,8.269,44.992,44.992,0,0,0,.713,8.269A4.225,4.225,0,0,0,4.664-.718C7.326,0,18,0,18,0S28.674,0,31.336-.718a4.225,4.225,0,0,0,3.018-2.989,44.992,44.992,0,0,0,.713-8.269A44.991,44.991,0,0,0,34.353-20.245ZM14.509-6.9v-10.15l8.921,5.075Z" transform="translate(-0.933 24)" fill="#d8d8d8"/>
</svg>
